<mxfile host="app.diagrams.net" agent="Mozilla/5.0 (Windows NT 10.0; Win64; x64) AppleWebKit/537.36 (KHTML, like Gecko) Chrome/138.0.0.0 Safari/537.36 Edg/138.0.0.0" version="28.0.4">
  <diagram name="Pagina-1" id="3Gkn7SsFIYb0ILNbLmdK">
    <mxGraphModel dx="795" dy="438" grid="1" gridSize="10" guides="1" tooltips="1" connect="1" arrows="1" fold="1" page="1" pageScale="1" pageWidth="827" pageHeight="1169" math="0" shadow="0">
      <root>
        <mxCell id="0" />
        <mxCell id="1" parent="0" />
        <mxCell id="lYfuaX99gXlzCmM3e0-U-5" value="&lt;b&gt;&amp;lt;&amp;lt;interface&amp;gt;&amp;gt;&lt;/b&gt;&lt;div&gt;&lt;b&gt;Entity&lt;/b&gt;&lt;/div&gt;" style="swimlane;fontStyle=0;childLayout=stackLayout;horizontal=1;startSize=40;fillColor=none;horizontalStack=0;resizeParent=1;resizeParentMax=0;resizeLast=0;collapsible=1;marginBottom=0;whiteSpace=wrap;html=1;rounded=1;" parent="1" vertex="1">
          <mxGeometry x="290" width="270" height="170" as="geometry" />
        </mxCell>
        <mxCell id="lYfuaX99gXlzCmM3e0-U-8" value="&lt;div style=&quot;line-height: 140%;&quot;&gt;&lt;div&gt;+ getPosition(): Position&lt;/div&gt;&lt;div&gt;+ setPosition(position: Position)&lt;/div&gt;&lt;div&gt;+ getDimension(): BoundigBox&lt;/div&gt;&lt;div&gt;+ setDimension(dimension: BoundigBox)&lt;/div&gt;&lt;div&gt;+ update(deltaTime: float)&lt;/div&gt;&lt;div&gt;+ onCollision(other: Entity)&lt;/div&gt;&lt;div&gt;+&amp;nbsp; collidesWith(other: Entity): boolean&lt;/div&gt;&lt;/div&gt;" style="text;strokeColor=none;fillColor=none;align=left;verticalAlign=top;spacingLeft=4;spacingRight=4;overflow=hidden;rotatable=0;points=[[0,0.5],[1,0.5]];portConstraint=eastwest;whiteSpace=wrap;html=1;" parent="lYfuaX99gXlzCmM3e0-U-5" vertex="1">
          <mxGeometry y="40" width="270" height="130" as="geometry" />
        </mxCell>
        <mxCell id="lYfuaX99gXlzCmM3e0-U-14" value="AbstractCollectable" style="swimlane;fontStyle=1;align=center;verticalAlign=top;childLayout=stackLayout;horizontal=1;startSize=26;horizontalStack=0;resizeParent=1;resizeParentMax=0;resizeLast=0;collapsible=1;marginBottom=0;whiteSpace=wrap;html=1;rounded=1;" parent="1" vertex="1">
          <mxGeometry x="19.71" y="200" width="140" height="34" as="geometry" />
        </mxCell>
        <mxCell id="lYfuaX99gXlzCmM3e0-U-16" value="" style="line;strokeWidth=1;fillColor=none;align=left;verticalAlign=middle;spacingTop=-1;spacingLeft=3;spacingRight=3;rotatable=0;labelPosition=right;points=[];portConstraint=eastwest;strokeColor=inherit;" parent="lYfuaX99gXlzCmM3e0-U-14" vertex="1">
          <mxGeometry y="26" width="140" height="8" as="geometry" />
        </mxCell>
        <mxCell id="lYfuaX99gXlzCmM3e0-U-18" value="AbstractLadder" style="swimlane;fontStyle=1;align=center;verticalAlign=top;childLayout=stackLayout;horizontal=1;startSize=26;horizontalStack=0;resizeParent=1;resizeParentMax=0;resizeLast=0;collapsible=1;marginBottom=0;whiteSpace=wrap;html=1;rounded=1;" parent="1" vertex="1">
          <mxGeometry x="19.71" y="254" width="140" height="34" as="geometry" />
        </mxCell>
        <mxCell id="lYfuaX99gXlzCmM3e0-U-20" value="" style="line;strokeWidth=1;fillColor=none;align=left;verticalAlign=middle;spacingTop=-1;spacingLeft=3;spacingRight=3;rotatable=0;labelPosition=right;points=[];portConstraint=eastwest;strokeColor=inherit;" parent="lYfuaX99gXlzCmM3e0-U-18" vertex="1">
          <mxGeometry y="26" width="140" height="8" as="geometry" />
        </mxCell>
        <mxCell id="lYfuaX99gXlzCmM3e0-U-22" value="AbstractPlatform" style="swimlane;fontStyle=1;align=center;verticalAlign=top;childLayout=stackLayout;horizontal=1;startSize=26;horizontalStack=0;resizeParent=1;resizeParentMax=0;resizeLast=0;collapsible=1;marginBottom=0;whiteSpace=wrap;html=1;rounded=1;" parent="1" vertex="1">
          <mxGeometry x="150" y="350" width="140" height="60" as="geometry" />
        </mxCell>
        <mxCell id="lYfuaX99gXlzCmM3e0-U-23" value="- canGoDown: boolean" style="text;strokeColor=none;fillColor=none;align=left;verticalAlign=top;spacingLeft=4;spacingRight=4;overflow=hidden;rotatable=0;points=[[0,0.5],[1,0.5]];portConstraint=eastwest;whiteSpace=wrap;html=1;" parent="lYfuaX99gXlzCmM3e0-U-22" vertex="1">
          <mxGeometry y="26" width="140" height="26" as="geometry" />
        </mxCell>
        <mxCell id="lYfuaX99gXlzCmM3e0-U-24" value="" style="line;strokeWidth=1;fillColor=none;align=left;verticalAlign=middle;spacingTop=-1;spacingLeft=3;spacingRight=3;rotatable=0;labelPosition=right;points=[];portConstraint=eastwest;strokeColor=inherit;" parent="lYfuaX99gXlzCmM3e0-U-22" vertex="1">
          <mxGeometry y="52" width="140" height="8" as="geometry" />
        </mxCell>
        <mxCell id="lYfuaX99gXlzCmM3e0-U-30" value="AbstractNpc&lt;div&gt;&lt;br&gt;&lt;/div&gt;" style="swimlane;fontStyle=1;align=center;verticalAlign=top;childLayout=stackLayout;horizontal=1;startSize=26;horizontalStack=0;resizeParent=1;resizeParentMax=0;resizeLast=0;collapsible=1;marginBottom=0;whiteSpace=wrap;html=1;rounded=1;" parent="1" vertex="1">
          <mxGeometry x="357" y="363" width="136" height="34" as="geometry" />
        </mxCell>
        <mxCell id="lYfuaX99gXlzCmM3e0-U-32" value="" style="line;strokeWidth=1;fillColor=none;align=left;verticalAlign=middle;spacingTop=-1;spacingLeft=3;spacingRight=3;rotatable=0;labelPosition=right;points=[];portConstraint=eastwest;strokeColor=inherit;" parent="lYfuaX99gXlzCmM3e0-U-30" vertex="1">
          <mxGeometry y="26" width="136" height="8" as="geometry" />
        </mxCell>
        <mxCell id="lYfuaX99gXlzCmM3e0-U-34" value="AbstractEnemy" style="swimlane;fontStyle=1;align=center;verticalAlign=top;childLayout=stackLayout;horizontal=1;startSize=26;horizontalStack=0;resizeParent=1;resizeParentMax=0;resizeLast=0;collapsible=1;marginBottom=0;whiteSpace=wrap;html=1;rounded=1;" parent="1" vertex="1">
          <mxGeometry x="570" y="350" width="140" height="60" as="geometry" />
        </mxCell>
        <mxCell id="lYfuaX99gXlzCmM3e0-U-35" value="- isDestroyed: boolean" style="text;strokeColor=none;fillColor=none;align=left;verticalAlign=top;spacingLeft=4;spacingRight=4;overflow=hidden;rotatable=0;points=[[0,0.5],[1,0.5]];portConstraint=eastwest;whiteSpace=wrap;html=1;" parent="lYfuaX99gXlzCmM3e0-U-34" vertex="1">
          <mxGeometry y="26" width="140" height="26" as="geometry" />
        </mxCell>
        <mxCell id="lYfuaX99gXlzCmM3e0-U-36" value="" style="line;strokeWidth=1;fillColor=none;align=left;verticalAlign=middle;spacingTop=-1;spacingLeft=3;spacingRight=3;rotatable=0;labelPosition=right;points=[];portConstraint=eastwest;strokeColor=inherit;" parent="lYfuaX99gXlzCmM3e0-U-34" vertex="1">
          <mxGeometry y="52" width="140" height="8" as="geometry" />
        </mxCell>
        <mxCell id="lYfuaX99gXlzCmM3e0-U-38" value="&lt;b&gt;GameBarrel&lt;/b&gt;" style="html=1;whiteSpace=wrap;rounded=1;" parent="1" vertex="1">
          <mxGeometry x="650" y="461.25" width="90" height="28.75" as="geometry" />
        </mxCell>
        <mxCell id="lYfuaX99gXlzCmM3e0-U-39" value="&lt;b&gt;GameFire&lt;/b&gt;" style="html=1;whiteSpace=wrap;rounded=1;" parent="1" vertex="1">
          <mxGeometry x="549" y="460" width="90" height="30" as="geometry" />
        </mxCell>
        <mxCell id="lYfuaX99gXlzCmM3e0-U-40" value="&lt;b&gt;Pauline&lt;/b&gt;" style="html=1;whiteSpace=wrap;rounded=1;" parent="1" vertex="1">
          <mxGeometry x="430" y="460" width="86" height="30" as="geometry" />
        </mxCell>
        <mxCell id="lYfuaX99gXlzCmM3e0-U-41" value="&lt;b&gt;BreakablePlatform&lt;/b&gt;" style="html=1;whiteSpace=wrap;rounded=1;" parent="1" vertex="1">
          <mxGeometry x="60" y="460" width="120" height="30" as="geometry" />
        </mxCell>
        <mxCell id="lYfuaX99gXlzCmM3e0-U-42" value="&lt;b&gt;NormalPlatform&lt;/b&gt;" style="html=1;whiteSpace=wrap;rounded=1;" parent="1" vertex="1">
          <mxGeometry x="190" y="460" width="120" height="30" as="geometry" />
        </mxCell>
        <mxCell id="lYfuaX99gXlzCmM3e0-U-43" value="&lt;b&gt;DonkeyKong&lt;/b&gt;" style="html=1;whiteSpace=wrap;rounded=1;" parent="1" vertex="1">
          <mxGeometry x="323.5" y="460" width="90" height="30" as="geometry" />
        </mxCell>
        <mxCell id="lYfuaX99gXlzCmM3e0-U-44" value="&lt;b&gt;NormalLadder&lt;/b&gt;" style="html=1;whiteSpace=wrap;rounded=1;" parent="1" vertex="1">
          <mxGeometry x="39.71" y="330" width="90" height="30" as="geometry" />
        </mxCell>
        <mxCell id="lYfuaX99gXlzCmM3e0-U-46" value="Mario" style="swimlane;fontStyle=1;align=center;verticalAlign=top;childLayout=stackLayout;horizontal=1;startSize=26;horizontalStack=0;resizeParent=1;resizeParentMax=0;resizeLast=0;collapsible=1;marginBottom=0;whiteSpace=wrap;html=1;rounded=1;" parent="1" vertex="1">
          <mxGeometry x="660" y="240" width="130" height="34" as="geometry" />
        </mxCell>
        <mxCell id="lYfuaX99gXlzCmM3e0-U-48" value="" style="line;strokeWidth=1;fillColor=none;align=left;verticalAlign=middle;spacingTop=-1;spacingLeft=3;spacingRight=3;rotatable=0;labelPosition=right;points=[];portConstraint=eastwest;strokeColor=inherit;" parent="lYfuaX99gXlzCmM3e0-U-46" vertex="1">
          <mxGeometry y="26" width="130" height="8" as="geometry" />
        </mxCell>
        <mxCell id="lYfuaX99gXlzCmM3e0-U-50" value="" style="endArrow=block;html=1;rounded=0;dashed=1;endFill=0;entryX=0.501;entryY=1.006;entryDx=0;entryDy=0;entryPerimeter=0;" parent="1" source="lYfuaX99gXlzCmM3e0-U-1" target="lYfuaX99gXlzCmM3e0-U-8" edge="1">
          <mxGeometry width="50" height="50" relative="1" as="geometry">
            <mxPoint x="430" y="240" as="sourcePoint" />
            <mxPoint x="430" y="170" as="targetPoint" />
          </mxGeometry>
        </mxCell>
        <mxCell id="lYfuaX99gXlzCmM3e0-U-54" value="" style="endArrow=none;html=1;rounded=0;exitX=1;exitY=0.5;exitDx=0;exitDy=0;" parent="1" source="lYfuaX99gXlzCmM3e0-U-18" edge="1">
          <mxGeometry width="50" height="50" relative="1" as="geometry">
            <mxPoint x="419.71" y="280" as="sourcePoint" />
            <mxPoint x="219.71" y="271" as="targetPoint" />
          </mxGeometry>
        </mxCell>
        <mxCell id="lYfuaX99gXlzCmM3e0-U-55" value="" style="endArrow=none;html=1;rounded=0;" parent="1" edge="1">
          <mxGeometry width="50" height="50" relative="1" as="geometry">
            <mxPoint x="159.71" y="220" as="sourcePoint" />
            <mxPoint x="219.71" y="220" as="targetPoint" />
          </mxGeometry>
        </mxCell>
        <mxCell id="lYfuaX99gXlzCmM3e0-U-56" value="" style="endArrow=none;html=1;rounded=0;" parent="1" edge="1">
          <mxGeometry width="50" height="50" relative="1" as="geometry">
            <mxPoint x="219.71" y="220" as="sourcePoint" />
            <mxPoint x="219.71" y="270" as="targetPoint" />
          </mxGeometry>
        </mxCell>
        <mxCell id="lYfuaX99gXlzCmM3e0-U-57" value="" style="endArrow=block;html=1;rounded=0;entryX=0.002;entryY=0.106;entryDx=0;entryDy=0;entryPerimeter=0;endFill=0;" parent="1" target="lYfuaX99gXlzCmM3e0-U-2" edge="1">
          <mxGeometry width="50" height="50" relative="1" as="geometry">
            <mxPoint x="219.71" y="247" as="sourcePoint" />
            <mxPoint x="279.99999999999994" y="220.25" as="targetPoint" />
          </mxGeometry>
        </mxCell>
        <mxCell id="lYfuaX99gXlzCmM3e0-U-58" value="" style="endArrow=block;html=1;rounded=0;exitX=0.5;exitY=0;exitDx=0;exitDy=0;endFill=0;" parent="1" source="lYfuaX99gXlzCmM3e0-U-44" edge="1">
          <mxGeometry width="50" height="50" relative="1" as="geometry">
            <mxPoint x="419.71" y="280" as="sourcePoint" />
            <mxPoint x="84" y="290" as="targetPoint" />
          </mxGeometry>
        </mxCell>
        <mxCell id="lYfuaX99gXlzCmM3e0-U-64" value="" style="endArrow=none;html=1;rounded=0;" parent="1" edge="1">
          <mxGeometry width="50" height="50" relative="1" as="geometry">
            <mxPoint x="220" y="340" as="sourcePoint" />
            <mxPoint x="640" y="340" as="targetPoint" />
          </mxGeometry>
        </mxCell>
        <mxCell id="lYfuaX99gXlzCmM3e0-U-65" value="" style="endArrow=none;html=1;rounded=0;entryX=0.5;entryY=0;entryDx=0;entryDy=0;" parent="1" target="lYfuaX99gXlzCmM3e0-U-22" edge="1">
          <mxGeometry width="50" height="50" relative="1" as="geometry">
            <mxPoint x="220" y="340" as="sourcePoint" />
            <mxPoint x="219.71" y="310" as="targetPoint" />
          </mxGeometry>
        </mxCell>
        <mxCell id="lYfuaX99gXlzCmM3e0-U-66" value="" style="endArrow=none;html=1;rounded=0;exitX=0.5;exitY=0;exitDx=0;exitDy=0;" parent="1" source="lYfuaX99gXlzCmM3e0-U-34" edge="1">
          <mxGeometry width="50" height="50" relative="1" as="geometry">
            <mxPoint x="640" y="380" as="sourcePoint" />
            <mxPoint x="640" y="340" as="targetPoint" />
          </mxGeometry>
        </mxCell>
        <mxCell id="lYfuaX99gXlzCmM3e0-U-67" value="" style="endArrow=block;html=1;rounded=0;entryX=0.5;entryY=1;entryDx=0;entryDy=0;endFill=0;" parent="1" target="lYfuaX99gXlzCmM3e0-U-1" edge="1">
          <mxGeometry width="50" height="50" relative="1" as="geometry">
            <mxPoint x="425" y="340" as="sourcePoint" />
            <mxPoint x="470" y="360" as="targetPoint" />
          </mxGeometry>
        </mxCell>
        <mxCell id="lYfuaX99gXlzCmM3e0-U-70" value="" style="endArrow=none;html=1;rounded=0;" parent="1" edge="1">
          <mxGeometry width="50" height="50" relative="1" as="geometry">
            <mxPoint x="370" y="440" as="sourcePoint" />
            <mxPoint x="480" y="440" as="targetPoint" />
          </mxGeometry>
        </mxCell>
        <mxCell id="lYfuaX99gXlzCmM3e0-U-72" value="" style="endArrow=block;html=1;rounded=0;endFill=0;" parent="1" edge="1">
          <mxGeometry width="50" height="50" relative="1" as="geometry">
            <mxPoint x="425" y="440" as="sourcePoint" />
            <mxPoint x="425" y="400" as="targetPoint" />
          </mxGeometry>
        </mxCell>
        <mxCell id="lYfuaX99gXlzCmM3e0-U-73" value="" style="endArrow=none;html=1;rounded=0;" parent="1" edge="1">
          <mxGeometry width="50" height="50" relative="1" as="geometry">
            <mxPoint x="370" y="460" as="sourcePoint" />
            <mxPoint x="370" y="440" as="targetPoint" />
          </mxGeometry>
        </mxCell>
        <mxCell id="lYfuaX99gXlzCmM3e0-U-74" value="" style="endArrow=none;html=1;rounded=0;" parent="1" edge="1">
          <mxGeometry width="50" height="50" relative="1" as="geometry">
            <mxPoint x="480" y="440" as="sourcePoint" />
            <mxPoint x="480" y="460" as="targetPoint" />
          </mxGeometry>
        </mxCell>
        <mxCell id="lYfuaX99gXlzCmM3e0-U-76" value="" style="endArrow=none;html=1;rounded=0;exitX=0.5;exitY=0;exitDx=0;exitDy=0;" parent="1" source="lYfuaX99gXlzCmM3e0-U-41" edge="1">
          <mxGeometry width="50" height="50" relative="1" as="geometry">
            <mxPoint x="420" y="330" as="sourcePoint" />
            <mxPoint x="260" y="440" as="targetPoint" />
            <Array as="points">
              <mxPoint x="120" y="440" />
            </Array>
          </mxGeometry>
        </mxCell>
        <mxCell id="lYfuaX99gXlzCmM3e0-U-77" value="" style="endArrow=none;html=1;rounded=0;" parent="1" edge="1">
          <mxGeometry width="50" height="50" relative="1" as="geometry">
            <mxPoint x="260" y="440" as="sourcePoint" />
            <mxPoint x="260" y="460" as="targetPoint" />
          </mxGeometry>
        </mxCell>
        <mxCell id="lYfuaX99gXlzCmM3e0-U-78" value="" style="endArrow=block;html=1;rounded=0;entryX=0.5;entryY=1;entryDx=0;entryDy=0;endFill=0;" parent="1" target="lYfuaX99gXlzCmM3e0-U-22" edge="1">
          <mxGeometry width="50" height="50" relative="1" as="geometry">
            <mxPoint x="220" y="440" as="sourcePoint" />
            <mxPoint x="470" y="280" as="targetPoint" />
          </mxGeometry>
        </mxCell>
        <mxCell id="lYfuaX99gXlzCmM3e0-U-79" value="" style="endArrow=none;html=1;rounded=0;" parent="1" edge="1">
          <mxGeometry width="50" height="50" relative="1" as="geometry">
            <mxPoint x="590" y="460" as="sourcePoint" />
            <mxPoint x="690" y="440" as="targetPoint" />
            <Array as="points">
              <mxPoint x="590" y="440" />
            </Array>
          </mxGeometry>
        </mxCell>
        <mxCell id="lYfuaX99gXlzCmM3e0-U-81" value="" style="endArrow=none;html=1;rounded=0;entryX=0.444;entryY=0;entryDx=0;entryDy=0;entryPerimeter=0;" parent="1" target="lYfuaX99gXlzCmM3e0-U-38" edge="1">
          <mxGeometry width="50" height="50" relative="1" as="geometry">
            <mxPoint x="690" y="440" as="sourcePoint" />
            <mxPoint x="720" y="460" as="targetPoint" />
            <Array as="points">
              <mxPoint x="690" y="440" />
            </Array>
          </mxGeometry>
        </mxCell>
        <mxCell id="lYfuaX99gXlzCmM3e0-U-82" value="" style="endArrow=block;html=1;rounded=0;entryX=0.5;entryY=1;entryDx=0;entryDy=0;endFill=0;" parent="1" target="lYfuaX99gXlzCmM3e0-U-34" edge="1">
          <mxGeometry width="50" height="50" relative="1" as="geometry">
            <mxPoint x="640" y="440" as="sourcePoint" />
            <mxPoint x="480" y="290" as="targetPoint" />
          </mxGeometry>
        </mxCell>
        <mxCell id="lYfuaX99gXlzCmM3e0-U-83" value="" style="endArrow=block;html=1;rounded=0;exitX=0;exitY=0.5;exitDx=0;exitDy=0;endFill=0;entryX=1;entryY=0.34;entryDx=0;entryDy=0;entryPerimeter=0;" parent="1" source="lYfuaX99gXlzCmM3e0-U-46" target="lYfuaX99gXlzCmM3e0-U-2" edge="1">
          <mxGeometry width="50" height="50" relative="1" as="geometry">
            <mxPoint x="430" y="380" as="sourcePoint" />
            <mxPoint x="572" y="284" as="targetPoint" />
          </mxGeometry>
        </mxCell>
        <mxCell id="lYfuaX99gXlzCmM3e0-U-86" value="" style="endArrow=block;html=1;rounded=0;dashed=1;endFill=0;" parent="1" target="lYfuaX99gXlzCmM3e0-U-1" edge="1">
          <mxGeometry width="50" height="50" relative="1" as="geometry">
            <mxPoint x="430" y="240" as="sourcePoint" />
            <mxPoint x="430" y="170" as="targetPoint" />
          </mxGeometry>
        </mxCell>
        <mxCell id="lYfuaX99gXlzCmM3e0-U-1" value="AbstractEntity&lt;div&gt;&lt;br&gt;&lt;/div&gt;" style="swimlane;fontStyle=1;align=center;verticalAlign=top;childLayout=stackLayout;horizontal=1;startSize=26;horizontalStack=0;resizeParent=1;resizeParentMax=0;resizeLast=0;collapsible=1;marginBottom=0;whiteSpace=wrap;html=1;rounded=1;" parent="1" vertex="1">
          <mxGeometry x="280" y="215" width="290" height="84" as="geometry" />
        </mxCell>
        <mxCell id="lYfuaX99gXlzCmM3e0-U-2" value="- position: Position&lt;div&gt;- dimension: BoundingBox&lt;/div&gt;&lt;div&gt;- velocity: Vector&lt;/div&gt;" style="text;strokeColor=none;fillColor=none;align=left;verticalAlign=top;spacingLeft=4;spacingRight=4;overflow=hidden;rotatable=0;points=[[0,0.5],[1,0.5]];portConstraint=eastwest;whiteSpace=wrap;html=1;" parent="lYfuaX99gXlzCmM3e0-U-1" vertex="1">
          <mxGeometry y="26" width="290" height="50" as="geometry" />
        </mxCell>
        <mxCell id="lYfuaX99gXlzCmM3e0-U-3" value="" style="line;strokeWidth=1;fillColor=none;align=left;verticalAlign=middle;spacingTop=-1;spacingLeft=3;spacingRight=3;rotatable=0;labelPosition=right;points=[];portConstraint=eastwest;strokeColor=inherit;" parent="lYfuaX99gXlzCmM3e0-U-1" vertex="1">
          <mxGeometry y="76" width="290" height="8" as="geometry" />
        </mxCell>
        <mxCell id="lYfuaX99gXlzCmM3e0-U-87" value="" style="endArrow=none;html=1;rounded=0;exitX=0.5;exitY=0;exitDx=0;exitDy=0;" parent="1" source="lYfuaX99gXlzCmM3e0-U-30" edge="1">
          <mxGeometry width="50" height="50" relative="1" as="geometry">
            <mxPoint x="390" y="290" as="sourcePoint" />
            <mxPoint x="425" y="340" as="targetPoint" />
          </mxGeometry>
        </mxCell>
      </root>
    </mxGraphModel>
  </diagram>
</mxfile>
